<svg xmlns="http://www.w3.org/2000/svg" viewBox="0 0 500 500"><path fill="#007579" d="M447.992 0H52.5C23.5 0 0 23.5 0 52.5V447c0 29.5 23.5 53 52.5 53h394.992c28.5 0 52.5-23.5 52.5-52.5v-395c.5-29-23-52.5-52-52.5Z"/><path fill="#fff" d="M392.188 250c0-109.455-118.49-177.866-213.282-123.138-43.992 25.399-71.093 72.34-71.093 123.138 0 109.456 118.489 177.867 213.281 123.138 43.992-25.399 71.094-72.339 71.094-123.138ZM75 250C75 115.285 220.833 31.088 337.5 98.446 391.645 129.707 425 187.479 425 250c0 134.715-145.833 218.912-262.5 151.555C108.355 370.294 75 312.522 75 250Zm128.721-74.443c5.195-2.871 11.484-2.803 16.611.342l98.438 60.156c4.853 3.008 7.861 8.271 7.861 14.014 0 5.742-3.008 11.005-7.861 14.013l-98.438 60.157a16.584 16.584 0 0 1-16.611.341 16.303 16.303 0 0 1-8.408-14.287V189.981a16.302 16.302 0 0 1 8.408-14.287v-.137Z"/></svg>